<?xml version="1.0" encoding="utf-8"?>
<!DOCTYPE svg PUBLIC "-//W3C//DTD SVG 1.1//EN" "http://www.w3.org/Graphics/SVG/1.1/DTD/svg11.dtd">
<svg xmlns="http://www.w3.org/2000/svg" xmlns:xlink="http://www.w3.org/1999/xlink" class="svg-stack-root" id="logo" viewBox="0 0 100 49">
	<g>
		<path fill-rule="evenodd" clip-rule="evenodd" fill="#E20074" d="M10.013,22.86H0.002v10.008h10.01V22.86z M0.484,0.005L0,17.16
		l2.599,0.444c0.485-5.052,1.818-8.804,4.007-11.254c2.302-2.561,5.493-3.898,9.57-4.013v35.873c0,1.851-0.127,3.233-0.379,4.146
		c-0.482,1.763-1.656,2.836-3.517,3.225c-0.92,0.184-2.346,0.274-4.276,0.274V48.6h24.037v-2.744c-1.344,0-2.292-0.023-2.849-0.069
		c-1.876-0.181-3.208-0.675-3.994-1.475c-0.928-0.937-1.39-2.969-1.39-6.101V2.338c4.094,0.114,7.3,1.452,9.613,4.013
		c2.197,2.45,3.54,6.202,4.024,11.254l2.599-0.444L39.56,0.005H0.484z M30.033,32.868h10.01V22.86h-10.01V32.868z M60.017,32.868
		h10.011V22.86H60.017V32.868z M90.045,22.86v10.008h10.01V22.86H90.045z"/>
	</g>
</svg>